<mxfile host="drawio-plugin" modified="2021-11-08T12:17:17.305Z" agent="5.0 (Macintosh; Intel Mac OS X 11_4_0) AppleWebKit/537.36 (KHTML, like Gecko) Chrome/89.0.4389.114 Safari/537.36" etag="rGafrfnxqi6H4JyNQZTp" version="14.7.4" type="embed"><diagram id="hk0LE2NLYRLPIpDZp0_F" name="Page-1"><mxGraphModel dx="941" dy="737" grid="1" gridSize="10" guides="1" tooltips="1" connect="1" arrows="1" fold="1" page="1" pageScale="1" pageWidth="827" pageHeight="1169" math="0" shadow="0"><root><mxCell id="0"/><mxCell id="1" parent="0"/><mxCell id="QxPhX4FnFoJrQRf-Aks0-16" value="docker-compose" style="whiteSpace=wrap;html=1;aspect=fixed;align=left;labelPosition=center;verticalLabelPosition=top;verticalAlign=bottom;" parent="1" vertex="1"><mxGeometry x="200" y="170" width="360" height="360" as="geometry"/></mxCell><mxCell id="QxPhX4FnFoJrQRf-Aks0-4" value="elasticsearch" style="rounded=0;whiteSpace=wrap;html=1;" parent="1" vertex="1"><mxGeometry x="240" y="200" width="120" height="60" as="geometry"/></mxCell><mxCell id="QxPhX4FnFoJrQRf-Aks0-12" style="edgeStyle=orthogonalEdgeStyle;rounded=0;orthogonalLoop=1;jettySize=auto;html=1;" parent="1" source="QxPhX4FnFoJrQRf-Aks0-5" target="QxPhX4FnFoJrQRf-Aks0-4" edge="1"><mxGeometry relative="1" as="geometry"/></mxCell><mxCell id="QxPhX4FnFoJrQRf-Aks0-5" value="kibana" style="rounded=0;whiteSpace=wrap;html=1;" parent="1" vertex="1"><mxGeometry x="400" y="200" width="120" height="60" as="geometry"/></mxCell><mxCell id="QxPhX4FnFoJrQRf-Aks0-10" style="edgeStyle=orthogonalEdgeStyle;rounded=0;orthogonalLoop=1;jettySize=auto;html=1;" parent="1" source="QxPhX4FnFoJrQRf-Aks0-6" target="QxPhX4FnFoJrQRf-Aks0-4" edge="1"><mxGeometry relative="1" as="geometry"/></mxCell><mxCell id="QxPhX4FnFoJrQRf-Aks0-13" style="edgeStyle=orthogonalEdgeStyle;rounded=0;orthogonalLoop=1;jettySize=auto;html=1;" parent="1" source="QxPhX4FnFoJrQRf-Aks0-6" target="QxPhX4FnFoJrQRf-Aks0-7" edge="1"><mxGeometry relative="1" as="geometry"/></mxCell><mxCell id="QxPhX4FnFoJrQRf-Aks0-14" style="edgeStyle=orthogonalEdgeStyle;rounded=0;orthogonalLoop=1;jettySize=auto;html=1;" parent="1" source="QxPhX4FnFoJrQRf-Aks0-6" target="QxPhX4FnFoJrQRf-Aks0-9" edge="1"><mxGeometry relative="1" as="geometry"><Array as="points"><mxPoint x="300" y="400"/><mxPoint x="460" y="400"/></Array></mxGeometry></mxCell><mxCell id="QxPhX4FnFoJrQRf-Aks0-6" value="contracts-app" style="rounded=0;whiteSpace=wrap;html=1;" parent="1" vertex="1"><mxGeometry x="240" y="320" width="120" height="60" as="geometry"/></mxCell><mxCell id="QxPhX4FnFoJrQRf-Aks0-7" value="postgreSQL" style="rounded=0;whiteSpace=wrap;html=1;" parent="1" vertex="1"><mxGeometry x="400" y="320" width="120" height="60" as="geometry"/></mxCell><mxCell id="QxPhX4FnFoJrQRf-Aks0-15" style="edgeStyle=orthogonalEdgeStyle;rounded=0;orthogonalLoop=1;jettySize=auto;html=1;entryX=0;entryY=0.5;entryDx=0;entryDy=0;" parent="1" source="QxPhX4FnFoJrQRf-Aks0-8" target="QxPhX4FnFoJrQRf-Aks0-9" edge="1"><mxGeometry relative="1" as="geometry"/></mxCell><mxCell id="QxPhX4FnFoJrQRf-Aks0-8" value="zookeeper" style="rounded=0;whiteSpace=wrap;html=1;" parent="1" vertex="1"><mxGeometry x="240" y="440" width="120" height="60" as="geometry"/></mxCell><mxCell id="QxPhX4FnFoJrQRf-Aks0-9" value="kafka-broker" style="rounded=0;whiteSpace=wrap;html=1;" parent="1" vertex="1"><mxGeometry x="400" y="440" width="120" height="60" as="geometry"/></mxCell><mxCell id="QxPhX4FnFoJrQRf-Aks0-17" value=":9092" style="text;html=1;strokeColor=none;fillColor=none;align=center;verticalAlign=middle;whiteSpace=wrap;rounded=0;" parent="1" vertex="1"><mxGeometry x="440" y="437" width="40" height="20" as="geometry"/></mxCell><mxCell id="QxPhX4FnFoJrQRf-Aks0-19" value=":5432" style="text;html=1;strokeColor=none;fillColor=none;align=center;verticalAlign=middle;whiteSpace=wrap;rounded=0;" parent="1" vertex="1"><mxGeometry x="396" y="330" width="40" height="20" as="geometry"/></mxCell><mxCell id="QxPhX4FnFoJrQRf-Aks0-20" value=":9200" style="text;html=1;strokeColor=none;fillColor=none;align=center;verticalAlign=middle;whiteSpace=wrap;rounded=0;" parent="1" vertex="1"><mxGeometry x="323" y="210" width="40" height="20" as="geometry"/></mxCell><mxCell id="QxPhX4FnFoJrQRf-Aks0-22" style="edgeStyle=orthogonalEdgeStyle;rounded=0;orthogonalLoop=1;jettySize=auto;html=1;entryX=1;entryY=0.5;entryDx=0;entryDy=0;" parent="1" source="QxPhX4FnFoJrQRf-Aks0-21" target="QxPhX4FnFoJrQRf-Aks0-5" edge="1"><mxGeometry relative="1" as="geometry"/></mxCell><mxCell id="QxPhX4FnFoJrQRf-Aks0-21" value="" style="verticalLabelPosition=bottom;html=1;verticalAlign=top;align=center;strokeColor=none;fillColor=#00BEF2;shape=mxgraph.azure.computer;pointerEvents=1;" parent="1" vertex="1"><mxGeometry x="630" y="100" width="50" height="45" as="geometry"/></mxCell><mxCell id="QxPhX4FnFoJrQRf-Aks0-23" value=":5601" style="text;html=1;strokeColor=none;fillColor=none;align=center;verticalAlign=middle;whiteSpace=wrap;rounded=0;" parent="1" vertex="1"><mxGeometry x="480" y="210" width="40" height="20" as="geometry"/></mxCell><mxCell id="3" style="edgeStyle=orthogonalEdgeStyle;rounded=0;orthogonalLoop=1;jettySize=auto;html=1;" edge="1" parent="1" source="2" target="QxPhX4FnFoJrQRf-Aks0-6"><mxGeometry relative="1" as="geometry"/></mxCell><mxCell id="2" value="curl" style="shape=process;whiteSpace=wrap;html=1;backgroundOutline=1;" vertex="1" parent="1"><mxGeometry x="30" y="320" width="120" height="60" as="geometry"/></mxCell><mxCell id="5" value=":8080" style="text;html=1;strokeColor=none;fillColor=none;align=center;verticalAlign=middle;whiteSpace=wrap;rounded=0;" vertex="1" parent="1"><mxGeometry x="237" y="330" width="40" height="20" as="geometry"/></mxCell></root></mxGraphModel></diagram></mxfile>